<svg xmlns="http://www.w3.org/2000/svg" style="display:none;">
  <symbol  viewBox="0 0 24 24" id="search">
    <path fill-rule="evenodd" clip-rule="evenodd" d="M16.207 4.89297C17.5853 6.27116 18.4131 8.10506 18.535 10.0503C18.6568 11.9956 18.0645 13.9185 16.869 15.458C16.885 15.471 16.899 15.485 16.914 15.5L21.157 19.743C21.3392 19.9316 21.44 20.1842 21.4377 20.4464C21.4354 20.7086 21.3302 20.9594 21.1448 21.1448C20.9594 21.3302 20.7086 21.4354 20.4464 21.4376C20.1842 21.4399 19.9316 21.3391 19.743 21.157L15.5 16.914C15.4855 16.8994 15.4715 16.8844 15.458 16.869C13.8504 18.116 11.828 18.7036 9.80247 18.5125C7.7769 18.3213 5.90023 17.3657 4.55426 15.8399C3.20829 14.3142 2.49413 12.333 2.55705 10.2994C2.61998 8.26581 3.45528 6.33256 4.89301 4.89297C5.63588 4.15006 6.51781 3.56075 7.48844 3.15869C8.45908 2.75662 9.4994 2.54968 10.55 2.54968C11.6006 2.54968 12.6409 2.75662 13.6116 3.15869C14.5822 3.56075 15.4641 4.15006 16.207 4.89297ZM6.30701 14.793C6.86414 15.3502 7.52557 15.7922 8.25352 16.0938C8.98147 16.3953 9.7617 16.5506 10.5497 16.5506C11.3376 16.5507 12.1178 16.3955 12.8458 16.094C13.5738 15.7925 14.2353 15.3506 14.7925 14.7935C15.3497 14.2363 15.7917 13.5749 16.0933 12.847C16.3949 12.119 16.5501 11.3388 16.5502 10.5508C16.5502 9.76288 16.3951 8.98263 16.0936 8.25464C15.7921 7.52665 15.3501 6.86517 14.793 6.30797C13.6647 5.19789 12.1434 4.57863 10.5606 4.58507C8.9778 4.59152 7.46165 5.22315 6.34242 6.34238C5.22318 7.46162 4.59155 8.97777 4.58511 10.5606C4.57866 12.1434 5.19793 13.6647 6.30801 14.793H6.30701Z" fill="#264576"></path>
  </symbol>
  <symbol viewBox="0 0 24 25" id="play">
	<path d="M8.1 20.0701C7.7 20.0701 7.2 19.9701 6.8 19.7701C6 19.2701 5.5 18.4701 5.5 17.5701V7.67009C5.5 6.77009 6 5.87009 6.8 5.47009C7.6 4.97009 8.6 4.97009 9.4 5.47009L17.9 10.3701C18.7 10.8701 19.2 11.6701 19.2 12.5701C19.2 13.4701 18.7 14.3701 17.9 14.7701L9.4 19.6701C9 19.9701 8.5 20.0701 8.1 20.0701ZM8.1 7.07009C8 7.07009 7.9 7.07009 7.8 7.17009C7.7 7.27009 7.5 7.37009 7.5 7.67009V17.4701C7.5 17.7701 7.7 17.9701 7.8 17.9701C7.9 17.9701 8.1 18.0701 8.4 17.9701L16.9 13.0701C17.2 12.8701 17.2 12.6701 17.2 12.5701C17.2 12.4701 17.2 12.1701 16.9 12.0701L8.4 7.17009C8.3 7.07009 8.2 7.07009 8.1 7.07009Z" fill="#191919"/>
  </symbol>
  <symbol  viewBox="0 0 24 25" id="vol">
	<path d="M12.5 5.77009C11.8 5.37009 11 5.37009 10.4 5.77009L6.3 8.17009H3C2.4 8.17009 2 8.57009 2 9.17009V15.9701C2 16.5701 2.4 16.9701 3 16.9701H6.2L10.3 19.3701C10.6 19.5701 11 19.6701 11.4 19.6701C11.8 19.6701 12.1 19.5701 12.5 19.3701C13.2 18.9701 13.6 18.2701 13.6 17.5701V7.57009C13.5 6.87009 13.1 6.17009 12.5 5.77009ZM11.5 17.5701C11.5 17.5701 11.5 17.6701 11.4 17.6701C11.3 17.6701 11.3 17.6701 11.3 17.6701L7 15.0701C6.8 14.9701 6.7 14.9701 6.5 14.9701H4V10.1701H6.5C6.7 10.1701 6.8 10.1701 7 10.0701L11.4 7.57009H11.5V17.5701Z" fill="#191919"/>
	<path d="M19.6 6.67012C19.2 6.27012 18.6 6.27012 18.2 6.67012C17.8 7.07012 17.8 7.67012 18.2 8.07012C20.6 10.4701 20.6 14.4701 18.2 16.8701C17.8 17.2701 17.8 17.8701 18.2 18.2701C18.4 18.4701 18.7 18.5701 18.9 18.5701C19.1 18.5701 19.4 18.4701 19.6 18.2701C22.8 15.1701 22.8 9.87012 19.6 6.67012Z" fill="#191919"/>
	<path d="M15.1 9.77009C14.7 10.1701 14.7 10.7701 15.1 11.1701C15.8 11.8701 15.8 13.0701 15.1 13.8701C14.7 14.2701 14.7 14.8701 15.1 15.2701C15.3 15.4701 15.6 15.5701 15.8 15.5701C16 15.5701 16.3 15.4701 16.5 15.2701C18 13.7701 18 11.2701 16.5 9.77009C16.1 9.37009 15.5 9.37009 15.1 9.77009Z" fill="#191919"/>
  </symbol>
  <symbol viewBox="0 0 24 25" id="location">
	<path d="M16.7008 5.57019C15.4008 4.27019 13.8008 3.57019 12.0008 3.57019C10.3008 3.57019 8.60078 4.27019 7.30078 5.57019C6.00078 6.87019 5.30078 8.47019 5.30078 10.2702C5.30078 12.5702 6.50077 14.6702 8.40077 15.8702C10.0008 16.8702 11.0008 18.4702 11.0008 20.1702V20.3702C11.0008 20.9702 11.4008 21.3702 12.0008 21.3702C12.6008 21.3702 13.0008 20.9702 13.0008 20.3702V20.1702C13.0008 18.4702 14.0008 16.8702 15.6008 15.8702C17.5008 14.6702 18.7008 12.5702 18.7008 10.2702C18.7008 8.57019 18.0008 6.87019 16.7008 5.57019ZM14.5008 14.2702C13.4008 14.9702 12.6008 15.7702 12.0008 16.7702C11.4008 15.7702 10.6008 14.8702 9.50078 14.2702C8.10078 13.3702 7.30078 11.9702 7.30078 10.3702C7.30078 9.17019 7.80078 7.97019 8.70078 7.07019C9.60078 6.17019 10.8008 5.67019 12.0008 5.67019C13.2008 5.67019 14.4008 6.17019 15.3008 7.07019C16.2008 7.97019 16.7008 9.17019 16.7008 10.3702C16.7008 11.8702 15.9008 13.3702 14.5008 14.2702Z" fill="#191919"/>
	<path d="M12.0008 8.57019C11.1008 8.57019 10.3008 9.37019 10.3008 10.2702C10.3008 11.1702 11.1008 11.9702 12.0008 11.9702C12.9008 11.9702 13.7008 11.1702 13.7008 10.2702C13.7008 9.37019 12.9008 8.57019 12.0008 8.57019Z" fill="#191919"/>
  </symbol>
  <symbol viewBox="0 0 24 25" id="info">
	<path d="M12 20.5702C7.55556 20.5702 4 17.0146 4 12.5702C4 8.12575 7.55556 4.57019 12 4.57019C16.4444 4.57019 20 8.12575 20 12.5702C20 17.0146 16.4444 20.5702 12 20.5702ZM12 6.34797C8.53333 6.34797 5.77778 9.10352 5.77778 12.5702C5.77778 16.0369 8.53333 18.7924 12 18.7924C15.4667 18.7924 18.2222 16.0369 18.2222 12.5702C18.2222 9.10352 15.4667 6.34797 12 6.34797Z" fill="#191919"/>
	<path d="M11.9998 17.4589C11.4664 17.4589 11.1109 17.1033 11.1109 16.57V11.77C11.1109 11.2367 11.4664 10.8811 11.9998 10.8811C12.5331 10.8811 12.8887 11.2367 12.8887 11.77V16.57C12.8887 17.1033 12.5331 17.4589 11.9998 17.4589Z" fill="#191919"/>
	<path d="M12 9.81461C11.4667 9.81461 11.1111 9.45905 11.1111 8.92572V8.57016C11.1111 8.03683 11.4667 7.68127 12 7.68127C12.5333 7.68127 12.8889 8.03683 12.8889 8.57016V8.92572C12.8889 9.45905 12.5333 9.81461 12 9.81461Z" fill="#191919"/>
  </symbol>
  <symbol viewBox="0 0 24 25" id="photo">
	<path d="M18.1 19.5702H5.4C4.1 19.5702 3 18.4702 3 17.1702V9.47019C3 8.17019 4.1 7.07019 5.4 7.07019C5.6 7.07019 5.7 6.97019 5.8 6.77019L6.2 5.67019C6.5 4.67019 7.5 4.07019 8.5 4.07019H15C16 4.07019 16.9 4.67019 17.3 5.67019L17.7 6.77019C17.8 6.97019 17.9 7.07019 18.1 7.07019C19.4 7.07019 20.5 8.17019 20.5 9.47019V17.1702C20.5 18.4702 19.4 19.5702 18.1 19.5702ZM8.5 6.07019C8.3 6.07019 8.2 6.17019 8.1 6.37019L7.7 7.47019C7.4 8.47019 6.4 9.07019 5.4 9.07019C5.2 9.07019 5 9.27019 5 9.47019V17.1702C5 17.3702 5.2 17.5702 5.4 17.5702H18.1C18.3 17.5702 18.5 17.3702 18.5 17.1702V9.47019C18.5 9.27019 18.3 9.07019 18.1 9.07019C17.1 9.07019 16.2 8.47019 15.8 7.47019L15.4 6.37019C15.3 6.17019 15.2 6.07019 15 6.07019H8.5Z" fill="#191919"/>
	<path d="M11.8 16.0702C9.9 16.0702 8.3 14.4702 8.3 12.5702C8.3 10.6702 9.9 9.07019 11.8 9.07019C13.7 9.07019 15.3 10.6702 15.3 12.5702C15.3 14.4702 13.7 16.0702 11.8 16.0702ZM11.8 11.0702C11 11.0702 10.3 11.7702 10.3 12.5702C10.3 13.3702 11 14.0702 11.8 14.0702C12.6 14.0702 13.3 13.3702 13.3 12.5702C13.3 11.7702 12.6 11.0702 11.8 11.0702Z" fill="#191919"/>
  </symbol>
  <symbol  viewBox="0 0 17 17" id="locationReg">
	<path d="M8.28507 9.32075C7.773 9.32075 7.27242 9.1689 6.84665 8.88441C6.42088 8.59992 6.08903 8.19556 5.89307 7.72246C5.69711 7.24937 5.64583 6.72879 5.74573 6.22656C5.84563 5.72433 6.09222 5.26299 6.45431 4.9009C6.8164 4.53881 7.27773 4.29223 7.77996 4.19233C8.2822 4.09243 8.80278 4.1437 9.27587 4.33966C9.74896 4.53562 10.1533 4.86747 10.4378 5.29325C10.7223 5.71902 10.8742 6.21959 10.8742 6.73166C10.8733 7.41808 10.6003 8.07615 10.1149 8.56152C9.62955 9.04688 8.97148 9.31993 8.28507 9.32075ZM8.28507 5.17821C7.97783 5.17821 7.67748 5.26932 7.42202 5.44002C7.16655 5.61071 6.96745 5.85333 6.84987 6.13718C6.73229 6.42104 6.70153 6.73339 6.76147 7.03473C6.82141 7.33607 6.96936 7.61287 7.18661 7.83012C7.40387 8.04737 7.68067 8.19532 7.98201 8.25527C8.28335 8.31521 8.59569 8.28444 8.87955 8.16686C9.16341 8.04929 9.40602 7.85018 9.57672 7.59471C9.74741 7.33925 9.83852 7.03891 9.83852 6.73166C9.83811 6.31979 9.67431 5.9249 9.38307 5.63366C9.09183 5.34242 8.69694 5.17862 8.28507 5.17821Z" fill="#191919"/>
	<path d="M8.28507 15.5345L3.91677 10.3828C3.85607 10.3054 3.796 10.2276 3.73657 10.1492C2.99038 9.16629 2.58728 7.9657 2.58909 6.73163C2.58909 5.22096 3.1892 3.77216 4.2574 2.70396C5.32561 1.63576 6.7744 1.03564 8.28507 1.03564C9.79574 1.03564 11.2445 1.63576 12.3127 2.70396C13.3809 3.77216 13.9811 5.22096 13.9811 6.73163C13.9829 7.96514 13.5799 9.16519 12.8341 10.1477L12.8336 10.1492C12.8336 10.1492 12.6782 10.3532 12.6549 10.3807L8.28507 15.5345ZM4.563 9.52525C4.56404 9.52525 4.68417 9.68474 4.71162 9.71891L8.28507 13.9334L11.8632 9.71322C11.886 9.68474 12.0071 9.52422 12.0077 9.5237C12.6172 8.72062 12.9466 7.73983 12.9454 6.73163C12.9454 5.49563 12.4544 4.31025 11.5804 3.43626C10.7065 2.56228 9.52107 2.07128 8.28507 2.07128C7.04907 2.07128 5.86369 2.56228 4.98971 3.43626C4.11572 4.31025 3.62472 5.49563 3.62472 6.73163C3.62363 7.74046 3.95342 8.72181 4.56352 9.52525H4.563Z" fill="#191919"/>
  </symbol>
  <symbol  viewBox="0 0 7 11" id="right">
	<path d="M1.44492 10.8339L0.973267 10.4861L0.973266 1.0581L1.42807 0.727097L6.02669 5.46636L6.02669 6.16289L1.44492 10.8339Z"/>
  </symbol>
  <symbol  viewBox="0 0 7 11" id="left">
	<path d="M5.55505 0.727097L6.0267 1.07494L6.0267 10.5029L5.57189 10.8339L0.973282 6.09467L0.973282 5.39814L5.55505 0.727097Z"/>
  </symbol>
</svg>